<?xml version="1.0" encoding="UTF-8"?>
<svg version="1.1" xmlns="http://www.w3.org/2000/svg" width="2000" height="2000">
<path d="M0 0 C5.89700419 0.56687331 11.80732487 0.97528136 17.71484375 1.41601562 C19.90630829 1.58453014 22.09772084 1.7537232 24.2890625 1.92382812 C25.665177 2.03041748 25.665177 2.03041748 27.0690918 2.13916016 C27.71531494 2.18927246 28.36153809 2.23938477 29.02734375 2.29101562 C29.02734375 2.95101562 29.02734375 3.61101563 29.02734375 4.29101562 C29.75179687 4.39285156 30.47625 4.4946875 31.22265625 4.59960938 C39.2478517 6.57796536 46.41027408 13.64060071 51.02734375 20.29101562 C51.02734375 20.95101562 51.02734375 21.61101563 51.02734375 22.29101562 C51.68734375 22.29101562 52.34734375 22.29101562 53.02734375 22.29101562 C54.76531016 27.56030819 55.3819447 32.19162135 55.33984375 37.72851562 C55.3356543 38.48060303 55.33146484 39.23269043 55.32714844 40.00756836 C55.21620528 45.43257075 54.51721677 49.40019362 52.02734375 54.29101562 C51.48787109 55.40283203 51.48787109 55.40283203 50.9375 56.53710938 C49.99643824 58.4694675 49.01572075 60.38242555 48.02734375 62.29101562 C47.36734375 62.29101562 46.70734375 62.29101562 46.02734375 62.29101562 C45.36734375 64.27101563 44.70734375 66.25101563 44.02734375 68.29101562 C44.58421875 68.06414062 45.14109375 67.83726562 45.71484375 67.60351562 C48.94857459 67.16652497 50.41808353 68.47902936 53.02734375 70.29101562 C53.02734375 72.60351562 53.02734375 72.60351562 52.02734375 75.29101562 C49.32777785 76.51809104 46.8407047 77.42143133 44.02734375 78.29101562 C37.02055906 80.76745041 30.83172658 84.01410038 24.49609375 87.90039062 C22.02734375 89.29101562 22.02734375 89.29101562 20.02734375 89.29101562 C19.69734375 90.28101563 19.36734375 91.27101563 19.02734375 92.29101562 C16.96484375 92.97851562 16.96484375 92.97851562 15.02734375 93.29101562 C15.02734375 93.95101562 15.02734375 94.61101562 15.02734375 95.29101562 C9.02661961 100.08005508 1.81530595 102.7003507 -5.34960938 105.19824219 C-9.19609722 106.55037533 -12.51105866 108.15352641 -15.97265625 110.29101562 C-16.63265625 110.29101562 -17.29265625 110.29101562 -17.97265625 110.29101562 C-17.89015625 111.32226562 -17.80765625 112.35351562 -17.72265625 113.41601562 C-17.95703125 115.34960938 -17.95703125 115.34960938 -18.97265625 117.29101562 C-21.98370355 119.14028601 -25.01633903 120.49639054 -28.28515625 121.83398438 C-31.0478992 123.01955401 -31.0478992 123.01955401 -32.03515625 125.21289062 C-31.94770877 128.12051924 -30.86676485 129.16957576 -28.97265625 131.35351562 C-26.12190935 134.77554315 -23.74662383 138.2114475 -21.47265625 142.04101562 C-18.50308803 146.85816588 -15.64137778 149.20965941 -10.97265625 152.29101562 C-9.99183394 154.91692086 -9.88899843 155.99441064 -10.66015625 158.72851562 C-12.13552915 161.60900557 -13.78980941 163.9035269 -15.97265625 166.29101562 C-16.63265625 166.29101562 -17.29265625 166.29101562 -17.97265625 166.29101562 C-18.43671875 167.71414063 -18.43671875 167.71414063 -18.91015625 169.16601562 C-19.97265625 172.29101562 -19.97265625 172.29101562 -20.97265625 174.29101562 C-21.63265625 174.29101562 -22.29265625 174.29101562 -22.97265625 174.29101562 C-23.22015625 175.11601563 -23.46765625 175.94101562 -23.72265625 176.79101562 C-25.15970436 180.81475033 -26.9962014 184.51080587 -28.97265625 188.29101562 C-29.63265625 188.29101562 -30.29265625 188.29101562 -30.97265625 188.29101562 C-31.07449219 188.98582031 -31.17632813 189.680625 -31.28125 190.39648438 C-32.08982631 193.78154115 -33.43941338 196.51388582 -35.03515625 199.60351562 C-35.85693359 201.20646484 -35.85693359 201.20646484 -36.6953125 202.84179688 C-37.32759766 204.05416016 -37.32759766 204.05416016 -37.97265625 205.29101562 C-38.63265625 205.29101562 -39.29265625 205.29101562 -39.97265625 205.29101562 C-40.11703125 206.05414062 -40.26140625 206.81726563 -40.41015625 207.60351562 C-40.97265625 210.29101563 -40.97265625 210.29101563 -41.97265625 213.29101562 C-42.63265625 213.29101562 -43.29265625 213.29101562 -43.97265625 213.29101562 C-44.08585205 214.0191748 -44.19904785 214.74733398 -44.31567383 215.49755859 C-44.99899488 218.40300617 -45.9798318 220.41955262 -47.484375 222.98632812 C-47.99210449 223.86184326 -48.49983398 224.7373584 -49.02294922 225.6394043 C-49.56322754 226.55568604 -50.10350586 227.47196777 -50.66015625 228.41601562 C-51.76121231 230.31008457 -52.86148171 232.20461106 -53.9609375 234.09960938 C-54.4863916 235.00179199 -55.0118457 235.90397461 -55.55322266 236.83349609 C-57.20229962 239.68860596 -58.78850983 242.57340366 -60.34765625 245.47851562 C-63.067127 250.51427978 -65.98433328 255.41080474 -68.97265625 260.29101562 C-69.60300781 261.32355469 -70.23335937 262.35609375 -70.8828125 263.41992188 C-74.12419558 268.70980909 -77.40327866 273.9647735 -80.78515625 279.16601562 C-86.59879831 288.3036307 -88.17119884 296.46861935 -88.16015625 307.22851562 C-88.15935059 308.05609375 -88.15854492 308.88367187 -88.15771484 309.73632812 C-88.07201251 318.51493611 -87.20731485 327.16282708 -85.47143555 335.77880859 C-83.89243553 343.71579199 -83.60132844 351.43104416 -83.49414062 359.50585938 C-83.32386791 365.97622265 -82.43368352 371.3034506 -79.97265625 377.29101562 C-79.47765625 378.50144531 -78.98265625 379.711875 -78.47265625 380.95898438 C-77.97765625 382.12042969 -77.48265625 383.281875 -76.97265625 384.47851562 C-69.95286503 401.68720605 -70.03108439 417.70409174 -73.21875 435.68554688 C-74.57659142 443.62604094 -75.06409047 451.50609255 -75.26342773 459.55273438 C-75.69017931 476.59311034 -77.28141076 493.36370823 -80.68774414 510.07617188 C-81.18664983 512.32775794 -81.18664983 512.32775794 -79.97265625 514.29101562 C-79.51511726 519.66709881 -79.51511726 519.66709881 -81.34765625 522.16601562 C-82.97265625 523.29101562 -82.97265625 523.29101562 -84.97265625 523.29101562 C-86.36682986 530.14607823 -86.36682986 530.14607823 -83.97265625 536.41601562 C-83.31265625 537.36476563 -82.65265625 538.31351563 -81.97265625 539.29101562 C-81.72850696 543.53107502 -82.60233531 546.73553421 -84.97265625 550.29101562 C-85.63265625 550.29101562 -86.29265625 550.29101562 -86.97265625 550.29101562 C-87.30265625 551.28101563 -87.63265625 552.27101563 -87.97265625 553.29101562 C-101.931764 560.4074235 -122.17997155 558.23445355 -137.1171875 554.76367188 C-142.03731817 553.949259 -147.01537211 553.82660454 -151.99365234 553.6328125 C-157.87611855 553.38755333 -157.87611855 553.38755333 -158.97265625 552.29101562 C-159.03515625 549.04101562 -159.03515625 549.04101562 -157.97265625 545.29101562 C-153.39401464 540.58727452 -147.01070039 539.29258993 -140.8046875 537.96679688 C-137.97794412 537.36576936 -137.97794412 537.36576936 -135.42578125 536.26757812 C-132.13948252 534.95933818 -128.85497022 534.50346299 -125.375 533.95117188 C-122.01481081 533.02780281 -119.78867842 531.45062608 -117.78515625 528.60351562 C-116.59096623 525.20466711 -116.3309444 521.87389713 -115.97265625 518.29101562 C-116.63265625 518.29101562 -117.29265625 518.29101562 -117.97265625 518.29101562 C-119.036979 515.09804738 -119.01053961 513.08656622 -118.8515625 509.74804688 C-118.80322266 508.67490234 -118.75488281 507.60175781 -118.70507812 506.49609375 C-118.64900391 505.37654297 -118.59292969 504.25699219 -118.53515625 503.10351562 C-118.48294922 501.97236328 -118.43074219 500.84121094 -118.37695312 499.67578125 C-118.24721818 496.88058283 -118.11224984 494.08573623 -117.97265625 491.29101562 C-117.31265625 491.29101562 -116.65265625 491.29101562 -115.97265625 491.29101562 C-116.40194121 487.78518846 -116.88106198 484.56189349 -118.01489258 481.20874023 C-119.41888771 476.38994541 -119.08842818 471.64155105 -118.921875 466.66992188 C-118.88192996 464.57815372 -118.84357051 462.48635481 -118.80664062 460.39453125 C-118.73905288 457.13592342 -118.66098706 453.87891763 -118.55444336 450.62133789 C-118.11346298 436.40486711 -118.94690461 425.77693133 -125.97265625 413.29101562 C-128.07673496 409.4247747 -128.97265625 407.75729882 -128.97265625 403.29101562 C-129.63265625 403.29101562 -130.29265625 403.29101562 -130.97265625 403.29101562 C-131.48828125 402.11539062 -132.00390625 400.93976563 -132.53515625 399.72851562 C-134.7861115 394.65378139 -137.13941345 389.6288067 -139.51000977 384.60913086 C-141.51765116 380.33835039 -143.38631946 376.09190718 -144.84765625 371.60351562 C-145.73512299 369.16216251 -145.73512299 369.16216251 -147.84765625 368.41601562 C-151.17715569 366.65333945 -152.33509931 363.53657071 -153.97265625 360.29101562 C-154.42253906 359.42863281 -154.87242187 358.56625 -155.3359375 357.67773438 C-158.97265625 350.59893816 -158.97265625 350.59893816 -158.97265625 348.29101562 C-159.63265625 348.29101562 -160.29265625 348.29101562 -160.97265625 348.29101562 C-161.22015625 347.50726562 -161.46765625 346.72351562 -161.72265625 345.91601562 C-163.20385063 342.80550743 -163.94560399 342.67481095 -166.97265625 341.29101562 C-168.68259059 339.66877023 -170.34613309 337.99688138 -171.97265625 336.29101562 C-172.73578125 335.58976562 -173.49890625 334.88851563 -174.28515625 334.16601562 C-176.97265625 331.29101562 -176.97265625 331.29101562 -178.609375 328.52929688 C-182.17498626 322.45010723 -182.17498626 322.45010723 -188.23828125 319.43945312 C-194.79955178 319.15996309 -194.79955178 319.15996309 -200.23828125 322.34960938 C-200.810625 322.99027344 -201.38296875 323.6309375 -201.97265625 324.29101562 C-202.63265625 324.29101562 -203.29265625 324.29101562 -203.97265625 324.29101562 C-204.19179688 324.84402344 -204.4109375 325.39703125 -204.63671875 325.96679688 C-206.41753655 329.06500328 -208.70519956 331.08046847 -211.34765625 333.47851562 C-212.78238281 334.79916016 -212.78238281 334.79916016 -214.24609375 336.14648438 C-216.7919475 338.14888223 -217.96354172 338.6108733 -220.97265625 339.29101562 C-221.30265625 340.28101563 -221.63265625 341.27101563 -221.97265625 342.29101562 C-224.03515625 342.97851562 -224.03515625 342.97851562 -225.97265625 343.29101562 C-225.97265625 343.95101563 -225.97265625 344.61101562 -225.97265625 345.29101562 C-237.08688149 354.68709976 -249.81868274 357.11521117 -263.97265625 356.29101562 C-273.72372496 354.74076623 -284.0182711 348.29100717 -290.09765625 340.66601562 C-292.40209845 337.33422357 -294.43771773 334.051615 -295.97265625 330.29101562 C-296.23820313 329.64519531 -296.50375 328.999375 -296.77734375 328.33398438 C-301.47661598 315.19839962 -301.83395763 297.65029335 -296.2734375 284.81054688 C-291.77767918 276.10254653 -285.42694531 266.93254107 -275.97265625 263.29101562 C-273.93929828 262.91026732 -271.89606303 262.58005462 -269.84765625 262.29101562 C-263.58009526 261.41204899 -263.58009526 261.41204899 -258.97265625 257.29101562 C-258.55493821 253.62301747 -258.55493821 253.62301747 -258.97265625 250.29101562 C-259.53210938 250.01128906 -260.0915625 249.7315625 -260.66796875 249.44335938 C-262.38672072 248.58398339 -264.10402997 247.7217191 -265.8203125 246.85742188 C-268.11175443 245.71879955 -270.40802976 244.60376088 -272.71875 243.50585938 C-273.35087402 243.20107666 -273.98299805 242.89629395 -274.63427734 242.58227539 C-275.8898685 241.97705659 -277.14928968 241.37971285 -278.41259766 240.79077148 C-279.97161678 240.03299344 -281.47770195 239.1684436 -282.97265625 238.29101562 C-283.30265625 237.30101562 -283.63265625 236.31101562 -283.97265625 235.29101562 C-285.63620415 234.61660432 -287.30332567 233.95098353 -288.97265625 233.29101562 C-291.28515625 231.29101562 -291.28515625 231.29101562 -292.97265625 229.29101562 C-292.97265625 228.63101563 -292.97265625 227.97101563 -292.97265625 227.29101562 C-293.96265625 226.96101562 -294.95265625 226.63101563 -295.97265625 226.29101562 C-296.66015625 224.22851562 -296.66015625 224.22851562 -296.97265625 222.29101562 C-297.63265625 222.29101562 -298.29265625 222.29101562 -298.97265625 222.29101562 C-302.97265625 216.87925092 -302.97265625 216.87925092 -302.97265625 214.29101562 C-303.51792969 214.19304687 -304.06320312 214.09507812 -304.625 213.99414062 C-309.6006512 213.00751577 -313.94834015 211.57389817 -318.53515625 209.42382812 C-321.25715436 208.15879695 -324.01193271 207.0018035 -326.78515625 205.85351562 C-328.30302734 205.22316406 -328.30302734 205.22316406 -329.8515625 204.58007812 C-331.9411936 203.71702648 -334.03235868 202.85768006 -336.125 202.00195312 C-341.86975588 199.64030064 -347.45956879 197.15358027 -352.97265625 194.29101562 C-352.97265625 193.63101563 -352.97265625 192.97101563 -352.97265625 192.29101562 C-353.59140625 192.14664063 -354.21015625 192.00226563 -354.84765625 191.85351562 C-356.97265625 191.29101562 -356.97265625 191.29101562 -358.97265625 190.29101562 C-358.97265625 189.63101563 -358.97265625 188.97101563 -358.97265625 188.29101562 C-359.70871094 188.01902344 -360.44476562 187.74703125 -361.203125 187.46679688 C-363.83296732 186.35031939 -365.94360012 185.10091009 -368.28515625 183.47851562 C-369.0740625 182.94484375 -369.86296875 182.41117188 -370.67578125 181.86132812 C-372.04493685 180.92527277 -373.4107945 179.98431885 -374.76953125 179.03320312 C-380.49693112 175.20648905 -386.75825119 172.68456732 -393.06640625 169.98632812 C-397.00993984 168.29272805 -400.85000474 166.43883411 -404.6640625 164.47070312 C-406.30269796 163.63336318 -407.95852692 162.82929711 -409.625 162.04882812 C-414.60646513 159.6934217 -418.47591816 157.60365927 -421.97265625 153.29101562 C-421.97265625 152.63101563 -421.97265625 151.97101563 -421.97265625 151.29101562 C-422.59052002 151.13318604 -423.20838379 150.97535645 -423.8449707 150.81274414 C-432.07364261 148.64588304 -440.10914077 145.96778702 -448.16015625 143.22851562 C-460.1341388 139.1551645 -471.47075274 135.43003487 -484.22753906 135.05200195 C-491.37201294 134.81145535 -496.9820654 134.55355142 -502.97265625 130.29101562 C-506.583619 126.23670365 -509.63242901 121.99615401 -512.53515625 117.41601562 C-512.92719238 116.80032715 -513.31922852 116.18463867 -513.72314453 115.55029297 C-520.85238108 104.2347544 -525.14575284 93.7443227 -525.22265625 80.35351562 C-525.25359375 79.01256836 -525.25359375 79.01256836 -525.28515625 77.64453125 C-525.31541557 72.54961781 -525.00719881 69.55015785 -521.97265625 65.29101562 C-520.22609215 58.81325257 -521.1681416 53.22286509 -523.18359375 46.93164062 C-524.87434623 41.27347885 -525.20741301 35.71535593 -525.28515625 29.85351562 C-525.31416016 29.12841797 -525.34316406 28.40332031 -525.37304688 27.65625 C-525.43815867 22.08167823 -524.16158409 18.87620872 -520.97265625 14.29101562 C-512.09853013 9.85395256 -498.07507179 11.06298086 -488.41015625 10.97851562 C-487.41226074 10.96103271 -486.41436523 10.9435498 -485.38623047 10.92553711 C-479.80380447 10.92974145 -475.25199662 11.5611561 -470.02563477 13.52709961 C-460.39929585 17.10907303 -450.13187932 17.75357722 -439.97265625 17.29101562 C-439.67617188 16.50210938 -439.3796875 15.71320312 -439.07421875 14.90039062 C-437.76001885 11.78732136 -436.9553239 10.8608407 -433.97265625 9.29101562 C-430.08720287 8.41188274 -426.82162917 8.00802465 -422.97265625 9.29101562 C-410.83821683 10.12455704 -398.79188563 8.71158714 -386.74682617 7.35839844 C-373.90643425 5.94502371 -362.59383033 6.38061114 -349.84765625 8.54101562 C-348.82650726 8.70991806 -348.82650726 8.70991806 -347.784729 8.88223267 C-322.12538524 13.12662122 -322.12538524 13.12662122 -311.97265625 17.29101562 C-309.9164617 17.95665134 -307.85337807 18.60124738 -305.78515625 19.22851562 C-304.63789062 19.57785156 -303.490625 19.9271875 -302.30859375 20.28710938 C-299.5111684 21.12895752 -296.71126835 21.9615601 -293.91015625 22.79101562 C-285.48540607 25.31159129 -277.18827736 28.16049849 -268.97265625 31.29101562 C-261.5472767 34.0771088 -254.05308805 36.62609237 -246.51806641 39.09692383 C-242.35071384 40.46995296 -238.22841755 41.92096953 -234.12597656 43.47680664 C-225.66643615 46.67551041 -217.13831701 49.62780702 -208.53515625 52.41601562 C-207.49294922 52.76277344 -206.45074219 53.10953125 -205.37695312 53.46679688 C-199.03547122 55.51903094 -192.85683845 56.96345932 -186.25366211 57.89208984 C-183.97265625 58.29101562 -183.97265625 58.29101562 -182.97265625 59.29101562 C-180.23564447 59.45112044 -177.52098035 59.5504839 -174.78125 59.60742188 C-173.96141129 59.62820297 -173.14157257 59.64898407 -172.29689026 59.6703949 C-169.66806724 59.73598056 -167.03914121 59.79481688 -164.41015625 59.85351562 C-162.63215064 59.8966923 -160.8541556 59.9403063 -159.07617188 59.984375 C-154.70843991 60.09167105 -150.34060398 60.19291266 -145.97265625 60.29101562 C-149.41814167 59.5197653 -152.64825852 59.15047358 -156.17578125 59.08007812 C-157.15675781 59.05171875 -158.13773438 59.02335938 -159.1484375 58.99414062 C-161.18211684 58.94245881 -163.21599592 58.89807142 -165.25 58.86132812 C-171.66634438 58.66003105 -177.02263855 57.70575472 -182.97265625 55.29101562 C-183.96265625 54.89914062 -184.95265625 54.50726562 -185.97265625 54.10351562 C-190.43092105 51.40998064 -194.37349212 48.05814074 -197.97265625 44.29101562 C-197.97265625 43.63101563 -197.97265625 42.97101562 -197.97265625 42.29101562 C-198.63265625 42.29101562 -199.29265625 42.29101562 -199.97265625 42.29101562 C-201.97265625 39.29101562 -201.97265625 39.29101562 -201.97265625 36.29101562 C-202.63265625 36.29101562 -203.29265625 36.29101562 -203.97265625 36.29101562 C-207.9512464 22.60196814 -207.9512464 22.60196814 -205.97265625 17.29101562 C-203.08580424 13.00989454 -199.6412279 10.7751672 -194.69287109 9.33935547 C-181.35696376 6.89346121 -168.12701549 6.76852515 -154.59765625 6.66601562 C-151.11584958 6.62922745 -147.63414485 6.58841327 -144.1524353 6.54336548 C-142.00538198 6.51665011 -139.85825539 6.49508795 -137.71109009 6.47982788 C-124.62274602 6.46305062 -124.62274602 6.46305062 -112.03125 3.33789062 C-106.04485499 1.21613037 -100.34333102 0.18013457 -94.03515625 -0.45898438 C-92.24875732 -0.64110474 -92.24875732 -0.64110474 -90.42626953 -0.8269043 C-60.6849667 -3.53731516 -29.6971723 -2.99415935 0 0 Z M-457.97265625 66.29101562 C-458.01329457 67.95718678 -458.01537725 69.62489657 -457.97265625 71.29101562 C-458.96265625 71.41476562 -458.96265625 71.41476562 -459.97265625 71.54101562 C-465.87709539 73.01712541 -471.0370407 75.56665068 -474.97265625 80.29101562 C-476.27095876 83.39848224 -476.27095876 83.39848224 -477.16015625 86.79101562 C-477.48371094 87.91507813 -477.80726563 89.03914062 -478.140625 90.19726562 C-478.41519531 91.21820312 -478.68976562 92.23914063 -478.97265625 93.29101562 C-479.16730469 93.96003906 -479.36195313 94.6290625 -479.5625 95.31835938 C-480.12165776 98.00764192 -480.25923101 100.60893212 -480.34765625 103.35351562 C-480.39664063 104.39636719 -480.445625 105.43921875 -480.49609375 106.51367188 C-480.24356037 109.46839852 -480.24356037 109.46839852 -477.7265625 111.16992188 C-473.54876606 112.87067021 -470.28635425 112.31268094 -465.97265625 111.29101562 C-462.53670418 109.86842952 -462.53670418 109.86842952 -459.97265625 108.29101562 C-460.48476898 104.19928765 -460.48476898 104.19928765 -462.00390625 100.41601562 C-463.19258798 97.80858473 -463.17268552 95.89212781 -463.09765625 93.04101562 C-463.07960938 92.14898438 -463.0615625 91.25695312 -463.04296875 90.33789062 C-463.01976562 89.66242188 -462.9965625 88.98695313 -462.97265625 88.29101562 C-459.67244624 87.46596312 -457.1481232 86.86753044 -453.97265625 88.29101562 C-453.28300495 89.61260683 -452.62027747 90.9483284 -451.97265625 92.29101562 C-451.0505581 93.71104678 -450.09076294 95.10720509 -449.09765625 96.47851562 C-448.60523438 97.17332031 -448.1128125 97.868125 -447.60546875 98.58398438 C-445.75233161 100.52135502 -444.5879125 100.91174686 -441.97265625 101.29101562 C-441.97265625 101.95101562 -441.97265625 102.61101562 -441.97265625 103.29101562 C-434.12719496 109.72488823 -427.43682772 111.06404983 -417.63671875 111.02539062 C-413.97265625 111.29101562 -413.97265625 111.29101562 -411.04296875 112.76757812 C-407.0412156 114.75318083 -403.62862889 114.81021182 -399.22265625 114.91601562 C-391.18211571 115.1862859 -391.18211571 115.1862859 -388.97265625 116.29101562 C-386.84904153 116.56300569 -384.72513375 116.83295935 -382.59960938 117.08959961 C-374.29647679 118.14646254 -368.31391962 119.55605393 -361.43359375 124.58398438 C-355.54779373 128.66667423 -348.64708485 130.18984866 -341.72265625 131.60351562 C-334.62251859 133.16085714 -328.44944705 136.08457343 -321.9921875 139.29541016 C-318.42652413 141.05324081 -314.82233657 142.72926489 -311.22265625 144.41601562 C-310.50722656 144.75286377 -309.79179688 145.08971191 -309.0546875 145.43676758 C-303.38459725 148.10608571 -297.71181475 150.77281342 -291.97265625 153.29101562 C-291.23015625 153.63261719 -290.48765625 153.97421875 -289.72265625 154.32617188 C-285.95625287 155.64762306 -282.15607305 156.22668951 -278.22265625 156.85351562 C-270.10135083 158.16232104 -270.10135083 158.16232104 -268.97265625 159.29101562 C-261.97336281 160.06308959 -255.42754384 159.18202225 -248.66015625 157.47851562 C-248.00329834 157.31327393 -247.34644043 157.14803223 -246.66967773 156.9777832 C-242.2418941 155.79082215 -238.16128276 154.13515494 -233.97265625 152.29101562 C-231.77117355 151.48049349 -229.56262577 150.68892068 -227.34765625 149.91601562 C-220.50375603 147.50008947 -213.73344506 144.93019398 -206.97265625 142.29101562 C-206.97265625 141.63101563 -206.97265625 140.97101563 -206.97265625 140.29101562 C-212.85148974 137.67820074 -218.67997353 138.1077336 -224.97265625 138.29101562 C-225.42640625 137.15664063 -225.88015625 136.02226563 -226.34765625 134.85351562 C-227.54361431 131.2437987 -227.54361431 131.2437987 -229.97265625 130.29101562 C-231.97225637 130.25102362 -233.97312867 130.24754763 -235.97265625 130.29101562 C-235.97265625 130.95101562 -235.97265625 131.61101562 -235.97265625 132.29101562 C-236.63265625 132.29101562 -237.29265625 132.29101562 -237.97265625 132.29101562 C-237.97265625 132.95101562 -237.97265625 133.61101562 -237.97265625 134.29101562 C-243.11574795 131.76622515 -248.12991261 129.11295097 -253.08984375 126.24414062 C-254.91833536 125.14046544 -254.91833536 125.14046544 -256.97265625 125.29101562 C-256.97265625 124.63101563 -256.97265625 123.97101563 -256.97265625 123.29101562 C-257.55015625 123.04351563 -258.12765625 122.79601562 -258.72265625 122.54101562 C-260.97265625 121.29101562 -260.97265625 121.29101562 -262.78930664 119.2175293 C-264.79998478 117.0797217 -264.79998478 117.0797217 -267.42358398 116.97973633 C-268.32536377 117.05796631 -269.22714355 117.13619629 -270.15625 117.21679688 C-271.16091309 117.27609375 -272.16557617 117.33539062 -273.20068359 117.39648438 C-274.25980957 117.46480469 -275.31893555 117.533125 -276.41015625 117.60351562 C-287.99027114 118.04697253 -293.43917922 115.94381353 -301.97265625 108.29101562 C-302.63265625 108.29101562 -303.29265625 108.29101562 -303.97265625 108.29101562 C-303.97265625 107.63101563 -303.97265625 106.97101563 -303.97265625 106.29101562 C-310.78458702 101.2150285 -317.87234922 97.56143352 -326.0234375 95.17773438 C-328.28028185 94.49918647 -330.5025531 93.70468866 -332.703125 92.86132812 C-337.37597292 91.08148467 -342.15215817 89.79230621 -346.97265625 88.47851562 C-353.58827321 86.63658859 -360.06728903 84.64479959 -366.47265625 82.16601562 C-378.82953305 77.41781352 -390.73617367 74.41172394 -403.77294922 72.12866211 C-409.6289648 71.07433563 -414.57479705 69.75011544 -419.97265625 67.29101562 C-427.07428433 65.66555118 -452.49409841 60.81245778 -457.97265625 66.29101562 Z " fill="#000000" transform="translate(1064.97265625,750.708984375)"/>
<path d="M0 0 C0.72493652 0.09071777 1.44987305 0.18143555 2.19677734 0.27490234 C5.9929329 0.78973626 9.42218721 1.45200628 13 2.875 C16.82725457 4.34758176 20.09715933 4.34813249 24.1875 4.25 C30.04380205 4.11146382 34.90075269 4.85996799 40.51171875 6.47265625 C43.30570283 7.23118672 46.01043285 7.66498496 48.875 8.0625 C59.38565743 9.93072379 67.08019923 14.79814465 73.375 23.25 C74.60339378 24.81579799 75.83207237 26.38137829 77.06469727 27.94384766 C77.99023723 29.11941344 78.91253681 30.29753676 79.83178711 31.47802734 C83.63231511 36.3524083 87.55107306 41.12045158 91.5 45.875 C96.34222089 51.71258453 101.01791927 57.61973442 105.5078125 63.734375 C107.40510666 66.29056211 109.38461882 68.76591098 111.375 71.25 C127.98261692 93.13574619 127.98261692 93.13574619 127.375 102.25 C127.045 102.58 126.715 102.91 126.375 103.25 C125.30236699 108.86507128 125.12112567 114.51224174 124.83056641 120.21264648 C123.58431974 143.55238955 120.20122533 167.45189805 111.375 189.25 C105.11155824 204.96306912 95.12332345 230.66022053 101.6875 247.3125 C101.95949219 247.9209375 102.23148438 248.529375 102.51171875 249.15625 C109.49234097 266.08662788 108.79560098 286.36523958 105.58081055 304.05688477 C104.48029161 310.17265309 103.90563813 316.24371339 103.4375 322.4375 C102.7449602 331.06066529 101.26289544 338.97416617 98.91601562 347.29492188 C96.13655824 357.33909821 94.02861939 367.36923053 92.82421875 377.72265625 C92.26025411 382.15100466 91.38511607 386.49582825 90.44921875 390.859375 C90.09195207 393.29120805 90.09195207 393.29120805 91.73828125 394.703125 C92.27839844 395.21359375 92.81851562 395.7240625 93.375 396.25 C94.28627381 399.28757937 94.89195656 402.33236045 95.53125 405.4375 C96.40051604 408.33505345 97.17641251 409.29570001 99.375 411.25 C99.375 411.91 99.375 412.57 99.375 413.25 C100.365 413.58 101.355 413.91 102.375 414.25 C106.01485331 417.79885698 107.49583427 420.2248566 108.5625 425.1875 C110.32579024 431.77767414 114.81038991 433.8635153 120.375 437.25 C122.28337919 438.60753376 124.17930804 439.98273671 126.0625 441.375 C129.19911465 443.67399597 132.3550747 445.92636169 135.5625 448.125 C136.490625 448.82625 137.41875 449.5275 138.375 450.25 C138.375 450.91 138.375 451.57 138.375 452.25 C139.1175 452.4975 139.86 452.745 140.625 453 C143.74057547 454.41617067 145.40060769 455.44028787 147.375 458.25 C147.106875 459.301875 146.83875 460.35375 146.5625 461.4375 C145.95053968 465.26440761 145.95053968 465.26440761 148.296875 467.6328125 C149.95505676 469.2343483 151.64648178 470.80226094 153.37109375 472.33203125 C154.03238281 472.96496094 154.69367188 473.59789062 155.375 474.25 C155.375 474.91 155.375 475.57 155.375 476.25 C156.035 476.25 156.695 476.25 157.375 476.25 C159.1015625 477.9296875 159.1015625 477.9296875 161 480.125 C161.94746094 481.20394531 161.94746094 481.20394531 162.9140625 482.3046875 C164.375 484.25 164.375 484.25 164.375 486.25 C165.035 486.25 165.695 486.25 166.375 486.25 C166.6225 487.03375 166.87 487.8175 167.125 488.625 C168.52889099 491.57317108 169.38175737 492.1524777 172.375 493.25 C172.375 493.91 172.375 494.57 172.375 495.25 C173.2103125 495.559375 173.2103125 495.559375 174.0625 495.875 C177.34512371 497.82683032 179.08173246 500.19230994 181.375 503.25 C181.375 503.91 181.375 504.57 181.375 505.25 C182.035 505.25 182.695 505.25 183.375 505.25 C189.09686831 511.50062182 191.24148053 520.61714739 191.4375 528.88671875 C190.64890735 539.08913622 187.43969035 548.92390844 183.375 558.25 C182.715 558.25 182.055 558.25 181.375 558.25 C181.2925 559.136875 181.21 560.02375 181.125 560.9375 C180.62756562 564.48144361 179.6272122 567.72912244 178.51953125 571.12890625 C176.31992529 578.17327014 174.7700641 585.27111064 173.3125 592.5 C170.49832459 606.41411929 170.49832459 606.41411929 168.12719727 613.10009766 C167.30294697 615.4559393 166.58218454 617.829144 165.875 620.22265625 C165.6275 621.05990234 165.38 621.89714844 165.125 622.75976562 C164.62394343 624.46518472 164.12394769 626.17091585 163.625 627.87695312 C162.07910875 633.09836187 160.33456039 638.16925617 158.375 643.25 C156.49970298 648.44248907 155.03115627 653.57487094 153.9140625 658.98046875 C153.16304168 662.14237523 152.08224337 665.15952173 150.9609375 668.20703125 C150.19120535 670.53660838 150.19120535 670.53660838 150.375 674.25 C152.025 674.25 153.675 674.25 155.375 674.25 C155.6875 677.5 155.6875 677.5 155.375 681.25 C154.199375 682.178125 154.199375 682.178125 153 683.125 C149.96617256 685.58095555 149.99412521 686.19541437 149.4375 689.875 C149.04296875 692.25390625 149.04296875 692.25390625 148.375 694.25 C145.25 695.8125 145.25 695.8125 142.375 696.25 C142.24222656 696.96027344 142.10945313 697.67054688 141.97265625 698.40234375 C141.79605469 699.32144531 141.61945313 700.24054687 141.4375 701.1875 C141.17646484 702.56228516 141.17646484 702.56228516 140.91015625 703.96484375 C140.375 706.25 140.375 706.25 139.375 707.25 C139.18368983 708.77598872 139.05149096 710.30948559 138.9453125 711.84375 C138.87183594 712.7925 138.79835938 713.74125 138.72265625 714.71875 C138.57654323 716.70793783 138.43573971 718.69752426 138.30078125 720.6875 C137.86049341 726.2396043 136.95307147 730.98959577 135.03466797 736.21289062 C134.06233466 739.21553648 133.96223814 742.10942685 133.875 745.25 C133.614336 750.23453404 132.92827517 754.14594629 131.12890625 758.76171875 C129.75193617 763.30643347 129.46532024 768.08550755 129 772.796875 C128.15697737 777.45457503 126.79369953 780.23144649 122.9375 783 C116.83192961 785.97832702 109.92036579 786.13634145 103.375 784.5 C100.88077603 782.94111002 100.281857 782.04614242 99.375 779.25 C97.63423855 770.72026887 98.22772213 762.27834028 99.14477539 753.69067383 C100.77308692 738.37585388 102.22905367 718.1825475 91.9375 705.3125 C91.33808594 704.63316406 90.73867187 703.95382812 90.12109375 703.25390625 C85.01890974 697.39837963 82.13904721 691.06420116 82.375 683.25 C82.96791796 677.47685145 84.83781836 673.94305483 89.375 670.25 C96.96339727 664.85824404 104.39001051 664.98443381 113.375 665.25 C113.13523437 664.15558594 113.13523437 664.15558594 112.890625 663.0390625 C111.39390269 654.94315546 112.62423055 647.13188416 114.03295898 639.11621094 C115.02360081 633.19588002 115.69988222 627.28229204 116.25390625 621.30859375 C117.86262892 604.07428909 119.45883129 587.6501507 125.375 571.25 C125.74882813 570.13496094 126.12265625 569.01992187 126.5078125 567.87109375 C128.47131051 562.189318 130.8448405 556.70060955 133.375 551.25 C134.035 551.25 134.695 551.25 135.375 551.25 C136.09946246 546.25925863 136.4044147 543.66469272 133.37109375 539.49609375 C131.73239345 537.73429859 130.05696709 536.00582866 128.34375 534.31640625 C126.375 532.25 126.375 532.25 126.375 530.25 C125.715 530.25 125.055 530.25 124.375 530.25 C124.375 529.59 124.375 528.93 124.375 528.25 C123.66988281 527.99476563 122.96476562 527.73953125 122.23828125 527.4765625 C119.10197817 526.13304385 116.43025344 524.47302596 113.5625 522.625 C107.31806882 518.68028962 100.83952565 515.39202555 94.2109375 512.1484375 C89.17613575 509.68010141 84.26809071 506.98681345 79.375 504.25 C79.375 503.59 79.375 502.93 79.375 502.25 C71.10140056 502.57379809 63.70581441 503.17102351 55.76171875 505.6171875 C52.51064646 506.47917393 49.71587133 506.47272476 46.375 506.25 C46.045 504.93 45.715 503.61 45.375 502.25 C43.79116512 502.36847584 42.20795712 502.49532272 40.625 502.625 C39.74328125 502.69460938 38.8615625 502.76421875 37.953125 502.8359375 C32.72736725 503.44066492 27.55780293 504.35463555 22.375 505.25 C22.3250474 510.99339575 22.28902245 516.73666119 22.26513672 522.48022461 C22.25516459 524.42848925 22.24158203 526.37673926 22.22412109 528.32495117 C22.13855556 538.1272375 22.18253976 547.51413269 23.92602539 557.19067383 C25.72338075 569.43790602 23.76981948 581.71380949 22.00854492 593.84326172 C20.11861304 607.03119712 20.48308868 618.94990586 22.87329102 632.12075806 C24.40366997 641.66598477 24.52835592 651.36856391 24.62109375 661.015625 C24.65399843 663.39323332 24.68721058 665.77083739 24.72070312 668.1484375 C24.76819918 671.83688791 24.81276795 675.52531711 24.85180664 679.21386719 C24.89165057 682.81461338 24.94311644 686.41505134 24.99609375 690.015625 C25.00871498 691.65655121 25.00871498 691.65655121 25.02159119 693.33062744 C25.15976257 701.95268918 26.53865473 709.30140062 29.65234375 717.3125 C35.52409108 733.05513069 35.75163085 748.61067597 30.375 764.25 C30.05789063 765.28511719 29.74078125 766.32023437 29.4140625 767.38671875 C27.04227783 773.9225013 22.53955233 779.04443279 16.375 782.25 C8.56771994 785.08901093 -1.26482541 785.97779241 -9.23046875 783.41015625 C-14.2257485 780.62667016 -17.05468438 776.71666127 -18.625 771.25 C-19.39916683 766.56467781 -19.15772682 762.67858634 -16.9375 758.4375 C-12.79996571 752.7344122 -9.34645075 751.05446919 -2.625 749.25 C-1.77222932 729.81917177 -1.77222932 729.81917177 -6.625 711.25 C-9.65312994 704.18170092 -11.8525072 697.151123 -13.6875 689.6875 C-15.23346322 683.47494225 -16.85190433 677.3626937 -18.93530273 671.30737305 C-20.80813012 665.72071237 -22.1479938 659.95206776 -23.625 654.25 C-23.91761719 653.15558594 -24.21023438 652.06117188 -24.51171875 650.93359375 C-24.77597656 649.92425781 -25.04023437 648.91492187 -25.3125 647.875 C-25.54324219 647.00101563 -25.77398438 646.12703125 -26.01171875 645.2265625 C-27.39308735 638.52208561 -27.77209015 631.82875526 -27.70678711 624.99902344 C-27.70372055 624.22855179 -27.70065399 623.45808014 -27.69749451 622.66426086 C-27.69039732 621.00779906 -27.68103871 619.35134565 -27.66959953 617.69490814 C-27.65202106 615.06102435 -27.64185023 612.4272028 -27.63368225 609.79327393 C-27.60939937 602.30987674 -27.57386486 594.82656356 -27.52905273 587.34326172 C-27.50205534 582.74874674 -27.48515355 578.15427982 -27.47418404 573.55970001 C-27.46803528 571.82320633 -27.45810868 570.08672124 -27.44410515 568.35027313 C-27.34762084 556.27760829 -27.63068615 544.79060524 -31.625 533.25 C-32.12308805 531.13589294 -32.54674732 529.01779279 -32.96484375 526.88671875 C-33.54253976 524.57935303 -34.23517666 522.39678374 -35.00390625 520.1484375 C-37.10260051 513.96083087 -38.7148476 507.65034544 -40.375 501.33398438 C-41.84686513 495.82598907 -43.55019325 490.55990488 -45.625 485.25 C-46.19893666 483.58723702 -46.7640867 481.92135481 -47.3125 480.25 C-47.56386719 479.486875 -47.81523438 478.72375 -48.07421875 477.9375 C-48.25597656 477.380625 -48.43773437 476.82375 -48.625 476.25 C-49.65367188 476.10304688 -49.65367188 476.10304688 -50.703125 475.953125 C-54.25180743 475.09916399 -57.13820544 473.68430486 -60.375 472 C-62.09976562 471.12601563 -62.09976562 471.12601563 -63.859375 470.234375 C-66.625 468.25 -66.625 468.25 -67.57421875 465.81640625 C-67.62666882 463.16566053 -67.3386891 461.00395114 -66.6875 458.4375 C-66.49285156 457.64730469 -66.29820313 456.85710937 -66.09765625 456.04296875 C-65.94167969 455.45128906 -65.78570313 454.85960937 -65.625 454.25 C-66.346875 454.04375 -67.06875 453.8375 -67.8125 453.625 C-71.69750691 451.72566329 -73.21703798 449.86194303 -75.625 446.25 C-75.5 443.5625 -75.5 443.5625 -74.625 441.25 C-74.295 440.26 -73.965 439.27 -73.625 438.25 C-72.965 438.25 -72.305 438.25 -71.625 438.25 C-71.42841192 436.83456585 -71.24312454 435.41755969 -71.0625 434 C-70.95808594 433.21109375 -70.85367187 432.4221875 -70.74609375 431.609375 C-70.49893423 429.26391314 -70.49893423 429.26391314 -71.22265625 427.140625 C-71.42181641 426.20476562 -71.42181641 426.20476562 -71.625 425.25 C-70.965 424.26 -70.305 423.27 -69.625 422.25 C-68.965 422.25 -68.305 422.25 -67.625 422.25 C-67.2228125 421.4146875 -67.2228125 421.4146875 -66.8125 420.5625 C-65.625 418.25 -65.625 418.25 -64.25 416 C-62.50049026 413.03929121 -60.9617355 410.01984291 -59.4375 406.9375 C-58.90769531 405.86886719 -58.37789062 404.80023437 -57.83203125 403.69921875 C-57.43371094 402.89097656 -57.03539062 402.08273437 -56.625 401.25 C-55.965 401.25 -55.305 401.25 -54.625 401.25 C-54.3671875 400.51910156 -54.109375 399.78820312 -53.84375 399.03515625 C-52.58056413 396.14845264 -51.11823702 394.11570188 -49.125 391.6875 C-46.90081233 388.96852482 -45.07847848 386.45492005 -43.625 383.25 C-42.965 383.25 -42.305 383.25 -41.625 383.25 C-41.52058594 382.68796875 -41.41617187 382.1259375 -41.30859375 381.546875 C-40.49886765 378.82619529 -39.26296662 376.85742193 -37.6875 374.5 C-37.16285156 373.70078125 -36.63820313 372.9015625 -36.09765625 372.078125 C-35.61167969 371.47484375 -35.12570312 370.8715625 -34.625 370.25 C-33.965 370.25 -33.305 370.25 -32.625 370.25 C-31.965 368.6 -31.305 366.95 -30.625 365.25 C-29.965 365.25 -29.305 365.25 -28.625 365.25 C-28.5425 364.38375 -28.46 363.5175 -28.375 362.625 C-26.7014783 355.09415235 -22.16198215 351.98147001 -16.29296875 347.46484375 C-11.91807712 343.8329791 -8.27074013 339.59793522 -4.625 335.25 C-3.88636719 334.49589844 -3.14773438 333.74179687 -2.38671875 332.96484375 C-0.03211747 329.33635618 -0.14363739 326.1727827 -0.3125 322 C-0.32216797 321.2678125 -0.33183594 320.535625 -0.34179688 319.78125 C-0.11867495 316.21853962 -0.11867495 316.21853962 -1.625 313.25 C-4.09159971 315.44713924 -5.15255821 317.30822707 -6.3125 320.375 C-7.31640625 322.5234375 -7.31640625 322.5234375 -8.625 324.25 C-11.30945142 325.07187976 -13.79671955 325.06753029 -16.625 325.25 C-18.2149433 327.17064793 -18.2149433 327.17064793 -18.625 329.25 C-19.945 328.92 -21.265 328.59 -22.625 328.25 C-22.955 324.62 -23.285 320.99 -23.625 317.25 C-24.285 317.25 -24.945 317.25 -25.625 317.25 C-25.955 319.23 -26.285 321.21 -26.625 323.25 C-27.945 323.58 -29.265 323.91 -30.625 324.25 C-31.12 322.765 -31.12 322.765 -31.625 321.25 C-31.295 320.59 -30.965 319.93 -30.625 319.25 C-31.615 318.92 -32.605 318.59 -33.625 318.25 C-33.58375 317.5075 -33.5425 316.765 -33.5 316 C-33.40549408 313.2793648 -33.40549408 313.2793648 -34.75 311.375 C-35.88600509 308.61613048 -35.0717604 307.19259297 -34.140625 304.46484375 C-33.0623594 299.83320289 -33.48528186 294.97713041 -33.625 290.25 C-34.945 289.92 -36.265 289.59 -37.625 289.25 C-37.563125 287.950625 -37.50125 286.65125 -37.4375 285.3125 C-37.43080596 281.00822979 -38.32950943 277.78692063 -39.828125 273.79296875 C-41.13932243 269.60870637 -41.61709548 265.3092839 -42.1953125 260.97265625 C-42.47765019 258.29277122 -42.47765019 258.29277122 -43.625 256.25 C-43.72759836 254.48017834 -43.80787874 252.70902191 -43.875 250.9375 C-44.20721704 247.23015045 -44.35371507 245.62629845 -46.5625 242.5625 C-47.573125 241.799375 -48.58375 241.03625 -49.625 240.25 C-50.34042969 239.65960937 -51.05585937 239.06921875 -51.79296875 238.4609375 C-56.21882818 234.81611208 -60.77481582 231.39748329 -65.4375 228.0625 C-69.19018893 225.35951427 -72.43346929 222.60950601 -75.625 219.25 C-78.01253418 217.15531499 -80.4157861 215.08102589 -82.83203125 213.01953125 C-83.42371094 212.43558594 -84.01539063 211.85164062 -84.625 211.25 C-84.625 210.59 -84.625 209.93 -84.625 209.25 C-85.181875 209.023125 -85.73875 208.79625 -86.3125 208.5625 C-89.28659588 206.87449964 -91.34508865 204.78323483 -93.625 202.25 C-93.625 201.59 -93.625 200.93 -93.625 200.25 C-94.615 199.92 -95.605 199.59 -96.625 199.25 C-98.5453339 197.01443057 -100.34839373 194.78196053 -102.125 192.4375 C-102.61097656 191.80779297 -103.09695313 191.17808594 -103.59765625 190.52929688 C-104.53467314 189.31270682 -105.46717219 188.09262015 -106.39453125 186.86865234 C-107.40309614 185.54190925 -108.43301384 184.23142323 -109.46875 182.92578125 C-110.625 181.25 -110.625 181.25 -110.625 179.25 C-111.223125 178.981875 -111.82125 178.71375 -112.4375 178.4375 C-115.29980369 176.883678 -117.21572625 175.56969199 -118.20361328 172.38427734 C-120.94825713 158.48295837 -116.8241308 139.70455823 -111.62988281 126.77246094 C-110.63751605 124.28141783 -109.93876167 121.85840439 -109.29296875 119.2578125 C-109.05425049 118.31244629 -108.81553223 117.36708008 -108.56958008 116.39306641 C-108.31974365 115.39710449 -108.06990723 114.40114258 -107.8125 113.375 C-105.45985813 104.1683812 -102.77244913 95.21338774 -99.625 86.25 C-99.14329417 84.75081349 -98.663804 83.25091145 -98.1875 81.75 C-96.61586892 77.00816451 -94.70163402 72.40158829 -92.82324219 67.77539062 C-91.14103446 63.61092644 -89.63399103 59.43315318 -88.26953125 55.15625 C-87.240447 52.11265537 -85.89012204 49.20195143 -84.625 46.25 C-84.1547403 44.85813939 -83.69721616 43.46193483 -83.25 42.0625 C-78.08627973 26.24520948 -78.08627973 26.24520948 -73.625 21.25 C-72.965 21.25 -72.305 21.25 -71.625 21.25 C-71.5321875 20.38375 -71.5321875 20.38375 -71.4375 19.5 C-70.2532104 16.22042881 -68.55512878 15.07319124 -65.625 13.25 C-62.3125 13 -62.3125 13 -59.625 13.25 C-58.27115385 19.65 -58.27115385 19.65 -60.0625 22.6875 C-60.578125 23.203125 -61.09375 23.71875 -61.625 24.25 C-61.07972656 24.06824219 -60.53445313 23.88648438 -59.97265625 23.69921875 C-58.38515317 23.17005106 -56.79652547 22.64425012 -55.20703125 22.12109375 C-53.52909491 21.55501235 -51.85896133 20.96504842 -50.19921875 20.34765625 C-42.74224624 17.62805451 -42.74224624 17.62805451 -38.625 19.25 C-37.635 20.24 -37.635 20.24 -36.625 21.25 C-36.94635428 25.21336945 -38.11729143 28.17603466 -40.625 31.25 C-42.58982396 32.16634957 -44.56077424 32.83193882 -46.625 33.4921875 C-49.40274986 34.54469428 -51.38339036 36.33803883 -53.625 38.25 C-54.285 38.25 -54.945 38.25 -55.625 38.25 C-55.90085937 38.80171875 -56.17671875 39.3534375 -56.4609375 39.921875 C-58.515625 44.03125 -60.5703125 48.140625 -62.625 52.25 C-61.3875 51.63125 -61.3875 51.63125 -60.125 51 C-58.97 50.4225 -57.815 49.845 -56.625 49.25 C-55.96371094 48.87875 -55.30242187 48.5075 -54.62109375 48.125 C-49.28030225 45.20631318 -49.28030225 45.20631318 -45.8125 45.4375 C-45.090625 45.705625 -44.36875 45.97375 -43.625 46.25 C-42.14 46.745 -42.14 46.745 -40.625 47.25 C-39.75 49.9375 -39.75 49.9375 -39.625 53.25 C-41.40357561 55.49204809 -43.19260531 56.62840354 -45.625 58.25 C-46.285 58.25 -46.945 58.25 -47.625 58.25 C-47.625 58.91 -47.625 59.57 -47.625 60.25 C-49.19921875 61.46875 -49.19921875 61.46875 -51.3125 62.75 C-52.03953125 63.19085937 -52.7665625 63.63171875 -53.515625 64.0859375 C-55.625 65.25 -55.625 65.25 -58.5625 66.375 C-59.243125 66.66375 -59.92375 66.9525 -60.625 67.25 C-61.12 68.735 -61.12 68.735 -61.625 70.25 C-63.36309524 71.23382749 -65.10231997 72.21581917 -66.8515625 73.1796875 C-72.231447 76.42657814 -73.95495208 81.83396448 -75.74609375 87.55859375 C-78.39736461 98.69393136 -78.76805572 110.4161886 -79.28393555 121.8190918 C-79.52645687 126.89957053 -79.52645687 126.89957053 -80.12109375 129.01416016 C-81.28643105 134.18477984 -80.97238304 139.6624052 -81.0300293 144.94897461 C-81.05165387 146.43976951 -81.08581066 147.93043593 -81.13256836 149.4206543 C-81.1996487 151.58178713 -81.22702632 153.74031641 -81.24609375 155.90234375 C-81.28367798 157.83581665 -81.28367798 157.83581665 -81.32202148 159.80834961 C-80.35081697 164.60382072 -78.60550003 165.5210989 -74.625 168.25 C-71.99100217 169.89346625 -69.31098964 171.40340697 -66.6015625 172.91796875 C-65.94929688 173.35753906 -65.29703125 173.79710937 -64.625 174.25 C-64.625 174.91 -64.625 175.57 -64.625 176.25 C-63.5421875 176.6521875 -63.5421875 176.6521875 -62.4375 177.0625 C-59.64720157 178.240626 -57.20250674 179.6688404 -54.625 181.25 C-54.20347656 180.11820313 -53.78195312 178.98640625 -53.34765625 177.8203125 C-52.79432869 176.33852006 -52.24094011 174.85675041 -51.6875 173.375 C-51.40970703 172.62863281 -51.13191406 171.88226562 -50.84570312 171.11328125 C-48.73828125 165.4765625 -48.73828125 165.4765625 -47.625 163.25 C-46.965 163.25 -46.305 163.25 -45.625 163.25 C-45.51542969 162.56035156 -45.40585938 161.87070312 -45.29296875 161.16015625 C-44.40613384 155.90403717 -43.33005961 150.95492945 -41.52734375 145.94140625 C-40.56741103 143.0782303 -39.77880394 140.18286283 -38.98608398 137.26977539 C-34.80300704 122.16022739 -28.69479425 107.56904501 -14.625 99.25 C-13.8928125 98.78335938 -13.160625 98.31671875 -12.40625 97.8359375 C-3.55786188 92.94747616 5.58070485 93.79327121 15.375 94.25 C15.375 93.59 15.375 92.93 15.375 92.25 C19.60512409 89.85292968 23.43731237 90.00137247 28.125 90.56640625 C30.375 91.25 30.375 91.25 32.5 94.1875 C33.375 97.25 33.375 97.25 33.375 99.25 C34.22771484 99.56517578 34.22771484 99.56517578 35.09765625 99.88671875 C38.20389942 101.74620223 39.7200675 104.12149003 41.8125 107.0625 C44.1059719 110.27336066 46.26990956 113.14747274 49.09765625 115.90625 C51.375 118.25 51.375 118.25 52.375 121.9375 C52.705 123.030625 53.035 124.12375 53.375 125.25 C55.6556707 126.46297649 55.6556707 126.46297649 58.375 127.25 C62.52891687 130.26362597 64.9056328 132.3340526 66.375 137.25 C66.61757969 140.66344272 66.74068646 144.03538115 66.765625 147.45507812 C66.88200035 150.89784876 67.10108163 152.88924368 69.2109375 155.66796875 C71.80761583 157.56626248 74.28613278 158.40758167 77.375 159.25 C77.82875 158.198125 78.2825 157.14625 78.75 156.0625 C79.00523437 155.47082031 79.26046875 154.87914062 79.5234375 154.26953125 C79.80445313 153.60308594 80.08546875 152.93664062 80.375 152.25 C80.70193848 151.4883252 81.02887695 150.72665039 81.36572266 149.94189453 C82.34896614 147.31943623 82.91072603 144.91704206 83.375 142.16015625 C83.54 141.21076172 83.705 140.26136719 83.875 139.28320312 C84.04 138.30287109 84.205 137.32253906 84.375 136.3125 C86.3474905 124.63936286 86.3474905 124.63936286 88.375 119.25 C90.81339757 111.69096754 88.79992854 106.01235891 85.375 99.25 C85.00117187 98.56292969 84.62734375 97.87585938 84.2421875 97.16796875 C83.375 95.25 83.375 95.25 83.375 92.25 C82.715 92.25 82.055 92.25 81.375 92.25 C80.11835022 89.34399739 79.375 87.45395416 79.375 84.25 C78.715 84.25 78.055 84.25 77.375 84.25 C77.1483667 83.73091064 76.9217334 83.21182129 76.68823242 82.67700195 C75.64981025 80.30395715 74.60620438 77.93322607 73.5625 75.5625 C73.20607422 74.74587891 72.84964844 73.92925781 72.48242188 73.08789062 C70.99476421 69.71677647 69.53181591 66.50765098 67.61328125 63.35546875 C66.375 61.25 66.375 61.25 66.375 58.25 C65.715 58.25 65.055 58.25 64.375 58.25 C63.6325 56.6721875 63.6325 56.6721875 62.875 55.0625 C57.60615537 44.46567376 57.60615537 44.46567376 50.375 35.25 C45.00776128 35.6213184 40.13169799 37.13529548 35.0625 38.8125 C27.61570248 41.25 27.61570248 41.25 25.375 41.25 C25.045 42.24 24.715 43.23 24.375 44.25 C22.3125 44.9375 22.3125 44.9375 20.375 45.25 C20.375 45.91 20.375 46.57 20.375 47.25 C16.74236489 49.57488647 13.60814767 49.48961213 9.375 49.25 C8.375 48.25 8.375 48.25 8.0625 44.5 C8.11286963 41.36588989 8.34702638 40.29733998 10 37.5 C12.60268737 35.03429617 15.37684807 33.20531648 18.375 31.25 C19.365 29.765 19.365 29.765 20.375 28.25 C16.4752347 28.64793523 13.50337371 29.18931425 9.9375 30.875 C5.33979443 32.64955303 3.1424798 32.36241195 -1.625 31.25 C-3.625 30 -3.625 30 -4.625 28.25 C-4.96484375 25.90234375 -4.96484375 25.90234375 -4.625 23.25 C-2.69140625 21.08203125 -2.69140625 21.08203125 -0.1875 19.0625 C3.08044403 16.54812718 3.08044403 16.54812718 5.375 13.25 C4.82070312 13.12496094 4.26640625 12.99992188 3.6953125 12.87109375 C1.12811912 12.18391572 -1.27889909 11.28987573 -3.75 10.3125 C-4.61882812 9.97347656 -5.48765625 9.63445313 -6.3828125 9.28515625 C-8.625 8.25 -8.625 8.25 -10.625 6.25 C-10.75 3.125 -10.75 3.125 -10.625 0.25 C-6.88765257 -0.99578248 -3.8193064 -0.49984505 0 0 Z M-46.625 173.25 C-47.49416887 174.65751221 -48.34485149 176.0764521 -49.1875 177.5 C-49.66316406 178.28890625 -50.13882812 179.0778125 -50.62890625 179.890625 C-51.80072917 182.16820887 -51.80072917 182.16820887 -51.46484375 184.484375 C-51.18769531 185.06703125 -50.91054687 185.6496875 -50.625 186.25 C-49.635 186.58 -48.645 186.91 -47.625 187.25 C-47.295 187.91 -46.965 188.57 -46.625 189.25 C-45.23343516 188.08722968 -45.23343516 188.08722968 -45.52734375 184.87109375 C-45.53401631 183.47652923 -45.54597468 182.08198257 -45.5625 180.6875 C-45.56701172 179.97658203 -45.57152344 179.26566406 -45.57617188 178.53320312 C-45.58799136 176.77209987 -45.60592737 175.01103964 -45.625 173.25 C-45.955 173.25 -46.285 173.25 -46.625 173.25 Z " fill="#000000" transform="translate(1201.625,522.75)"/>
<path d="M0 0 C0.66 0.33 1.32 0.66 2 1 C2 3.31 2 5.62 2 8 C1.01 8 0.02 8 -1 8 C-1.04241723 5.66705225 -1.04092937 3.33297433 -1 1 C-0.67 0.67 -0.34 0.34 0 0 Z " fill="#151515" transform="translate(1189,839)"/>
<path d="M0 0 C0.66 0.66 1.32 1.32 2 2 C1.34 2 0.68 2 0 2 C0 1.34 0 0.68 0 0 Z " fill="#1C1C1C" transform="translate(0,1998)"/>
<path d="" fill="#000000" transform="translate(0,0)"/>
<path d="" fill="#000000" transform="translate(0,0)"/>
<path d="" fill="#808080" transform="translate(0,0)"/>
</svg>
